<svg xmlns="http://www.w3.org/2000/svg" viewBox="0 0 1609.97 432"><defs><style>.cls-1,.cls-5,.cls-7,.cls-8{fill:#27aae1;}.cls-1{stroke:#27aae1;}.cls-1,.cls-2,.cls-3,.cls-4,.cls-7{stroke-miterlimit:10;}.cls-1,.cls-2{stroke-width:5px;}.cls-2,.cls-4{fill:none;}.cls-2,.cls-3,.cls-4,.cls-7{stroke:#231f20;}.cls-3,.cls-6{fill:#fff;}.cls-4{stroke-width:2px;}.cls-8{font-size:160px;font-family:SegoeUI-SemilightItalic, Segoe UI;font-weight:300;font-style:italic;}</style></defs><g id="Layer_4" data-name="Layer 4"><line class="cls-1" x1="254.79" y1="360.98" x2="379.51" y2="332.74"/><line class="cls-1" x1="377.02" y1="216.03" x2="405.34" y2="289.12"/><line class="cls-1" x1="534.62" y1="138.4" x2="413.42" y2="162.94"/></g><g id="Layer_2" data-name="Layer 2"><path class="cls-2" d="M484.47,58.24a145.5,145.5,0,0,0-252.31,86.41A126.88,126.88,0,0,0,142,215.82a87.34,87.34,0,0,0-61.73,42.43,48.51,48.51,0,1,0,0,87.57,87.23,87.23,0,0,0,73.16,43.44"/><path class="cls-2" d="M419.25,416.38a126.63,126.63,0,0,0,143.44-70.86A116.4,116.4,0,0,0,751.06,324.8a47.54,47.54,0,0,0,11.35,1.36,48.51,48.51,0,0,0,0-97c-1,0-2.1,0-3.13.1A116.63,116.63,0,0,0,680,155.61"/></g><g id="Layer_3" data-name="Layer 3"><circle class="cls-3" cx="371.64" cy="177.2" r="48.41"/><path class="cls-4" d="M274.64,177.2c3.65-4.86,37.63-48.42,97-48.42,6.08,0,61.31,1,97,48.42"/><path class="cls-4" d="M274.64,177.2c3.65,4.85,37.63,48.41,97,48.41,6.08,0,61.31-1,97-48.41"/><circle class="cls-5" cx="212.31" cy="375.19" r="48.5"/><circle class="cls-6" cx="212.31" cy="375.19" r="30.1"/><circle class="cls-5" cx="578" cy="128.69" r="48.5"/><circle class="cls-6" cx="578" cy="128.69" r="30.1"/><circle class="cls-5" cx="425.52" cy="326.68" r="48.5"/><circle class="cls-6" cx="425.52" cy="326.68" r="30.1"/><circle class="cls-7" cx="371.64" cy="177.2" r="48.5"/><circle class="cls-6" cx="371.64" cy="177.2" r="30.1"/><text class="cls-8" transform="translate(854.77 165.71)">Big Cloud <tspan x="0" y="192">Analytics</tspan></text></g></svg>