<svg width="46" height="46" xmlns="http://www.w3.org/2000/svg" xmlns:xlink="http://www.w3.org/1999/xlink" overflow="hidden"><defs><clipPath id="clip0"><path d="M190 457 236 457 236 503 190 503Z" fill-rule="evenodd" clip-rule="evenodd"/></clipPath></defs><g clip-path="url(#clip0)" transform="translate(-190 -457)"><path d="M231.334 460.75 224 460.75 224 457 191 457 191 469.226C191 471.016 191.626 472.747 192.766 474.107L200.235 483.019C201.374 484.378 202 486.109 202 487.9L202 502 213 498.25 213 487.9C213 486.109 213.626 484.378 214.766 483.019L217.714 479.5 231.334 479.5C233.359 479.5 235 477.821 235 475.75L235 464.5C235 462.429 233.359 460.75 231.334 460.75ZM227.667 472 223.465 472C223.807 471.123 224 470.186 224 469.226L224 468.25 227.667 468.25 227.667 472Z" fill-rule="evenodd"/></g></svg>