<svg width="54" height="61" xmlns="http://www.w3.org/2000/svg" xmlns:xlink="http://www.w3.org/1999/xlink" overflow="hidden"><defs><clipPath id="clip0"><path d="M186 308 240 308 240 369 186 369Z" fill-rule="evenodd" clip-rule="evenodd"/></clipPath></defs><g clip-path="url(#clip0)" transform="translate(-186 -308)"><path d="M235 338.222C235 331.973 230.066 326.889 224 326.889L218.987 326.889 220.305 316.024C220.325 315.869 220.334 315.712 220.334 315.556 220.334 311.389 217.045 308 213 308 208.956 308 205.667 311.389 205.667 315.556 205.667 315.712 205.676 315.869 205.695 316.024L207.014 326.889 202 326.889C195.934 326.889 191 331.973 191 338.222L191 342 235 342 235 338.222ZM213 313.667C214.013 313.667 214.834 314.512 214.834 315.556 214.834 316.599 214.013 317.444 213 317.444 211.988 317.444 211.167 316.599 211.167 315.556 211.167 314.512 211.988 313.667 213 313.667Z" fill-rule="evenodd"/><path d="M232.063 346.001 193.937 346.001C192.297 358.81 187 368.001 187 368.001L194.287 368.001C197.347 364.536 200 360.382 200 358.834 201.157 362.26 201.592 365.683 201.757 367.779 205.557 363.087 208.915 357.289 208.915 355.168 210.476 360.305 210.935 365.385 211.075 368.001L216.8 368.001C216.949 365.933 217.369 362.397 218.572 358.834 218.572 360.382 221.225 364.536 224.285 368.001L239 368.001C239 368.001 233.704 358.81 232.063 346.001Z" fill-rule="evenodd"/></g></svg>