<svg width="62" height="61" xmlns="http://www.w3.org/2000/svg" xmlns:xlink="http://www.w3.org/1999/xlink" overflow="hidden"><defs><clipPath id="clip0"><path d="M419 24 481 24 481 85 419 85Z" fill-rule="evenodd" clip-rule="evenodd"/></clipPath></defs><g clip-path="url(#clip0)" transform="translate(-419 -24)"><path d="M452 27.5C452 28.8808 450.881 30.0001 449.5 30.0001 448.119 30.0001 447 28.8808 447 27.5 447 26.1193 448.119 25 449.5 25 450.881 25 452 26.1193 452 27.5Z" fill-rule="evenodd"/><path d="M448.905 55.6271C449.145 55.8757 449.459 56.0001 449.773 56.0001 450.087 56.0001 450.401 55.8757 450.64 55.6271 451.12 55.13 451.12 54.3246 450.64 53.8275L426.095 28.3729C425.616 27.8757 424.839 27.8757 424.36 28.3729 423.88 28.8701 423.88 29.6755 424.36 30.1725L448.905 55.6271Z" fill-rule="evenodd"/><path d="M459.716 26.0658C459.045 25.8337 458.309 26.2381 458.109 26.925L457.404 29.3452C457.214 29.9959 457.578 30.6596 458.212 30.8827 470.266 35.1217 477.767 48.3728 474.038 61.6261 471.328 71.2615 462.993 78.5365 453.146 79.7567 437.962 81.638 425 69.6745 425 54.7112 425 50.6008 426.015 46.5365 427.945 42.8814 428.261 42.2829 428.08 41.5473 427.503 41.2002L425.358 39.9098C424.748 39.5433 423.937 39.7505 423.6 40.3806 421.242 44.797 420 49.7239 420 54.7112 420 72.6772 435.574 87.0406 453.807 84.7616 464.963 83.3674 474.589 75.503 478.29 64.787 484.001 48.2514 474.802 31.2881 459.716 26.0658Z" fill-rule="evenodd"/></g></svg>